<svg xmlns="http://www.w3.org/2000/svg" viewBox="0 0 512 512" role="img" aria-label="Fauran">
  <rect width="512" height="512" rx="116" fill="#e7ede9"/>
  <g transform="translate(256 256) scale(0.62) translate(-519.5 -462)">
    <path fill="#1b6e3e" fill-rule="evenodd" d="M 560 232.531 C 559.175 232.695, 553.775 233.361, 548 234.012 C 464.418 243.423, 394.365 300.580, 375.579 374.690 C 374.160 380.285, 373 385.613, 373 386.530 C 373 389.697, 369.721 395.093, 366.915 396.544 C 364.548 397.768, 355.045 398.003, 307.300 398.016 L 250.500 398.033 246.556 400.267 C 235.941 406.279, 235.788 422.073, 246.286 428.086 L 250.500 430.500 295 430.779 C 338.694 431.053, 339.581 431.098, 343.949 433.279 C 346.396 434.501, 349.771 437.229, 351.449 439.343 C 354.215 442.826, 354.500 443.862, 354.500 450.416 C 354.500 456.615, 354.111 458.234, 351.772 461.768 C 350.272 464.035, 346.897 467.152, 344.272 468.695 L 339.500 471.500 267.926 472 L 196.351 472.500 192.661 475 C 182.517 481.872, 182.883 497.050, 193.329 502.765 C 196.209 504.341, 202.047 504.546, 257 505 L 317.500 505.500 321.876 507.835 C 338.949 516.943, 339.390 539.638, 322.660 548.173 C 318.672 550.208, 317.103 550.293, 281.507 550.394 C 246.079 550.495, 244.351 550.588, 241.003 552.554 C 235.888 555.559, 232.999 560.378, 233.004 565.898 C 233.008 570.993, 236.250 577.581, 238.170 576.395 C 238.854 575.972, 239.035 576.135, 238.623 576.802 C 238.238 577.423, 239.140 578.702, 240.670 579.706 C 243.073 581.282, 246.684 581.564, 270.452 582.027 C 295.055 582.507, 297.911 582.743, 302.051 584.633 C 308.425 587.544, 313.414 592.223, 315.992 597.707 C 319.049 604.210, 318.475 611.202, 312.094 645.199 C 307.673 668.758, 307.053 673.481, 307.946 676.798 C 309.578 682.859, 313.068 687.284, 318.240 689.851 C 322.852 692.139, 323.702 692.203, 350.239 692.270 C 376.215 692.336, 377.696 692.239, 381.655 690.198 C 386.157 687.878, 389.106 684.682, 390.800 680.291 C 391.392 678.756, 396.438 658.825, 402.014 636 C 426.368 536.307, 450.096 441.778, 452.930 433.157 C 465.242 395.708, 492.797 369.891, 532.500 358.606 C 554.060 352.478, 548.537 352.741, 670 352.053 C 794.872 351.345, 785.427 351.933, 801.972 343.832 C 808.830 340.473, 812.179 337.952, 819.554 330.592 C 834.005 316.170, 840.054 304.861, 849.559 274.500 C 856.792 251.395, 856.126 243.737, 846.299 237.003 C 838.812 231.873, 842.446 231.992, 697.032 232.116 C 622.489 232.180, 560.825 232.366, 560 232.531 M 558 424.560 C 542.146 427.977, 528.225 438.831, 522.678 452.097 C 520.554 457.176, 507 509.173, 507 512.240 C 507 512.658, 540.951 513, 582.446 513 L 657.892 513 656.338 518.250 C 648.924 543.287, 631.031 559.747, 606.140 564.428 C 599.281 565.718, 589.131 566.004, 549.640 566.022 C 504.917 566.042, 501.216 566.175, 497.500 567.896 C 489 571.831, 486.504 576.635, 481.086 599.500 C 479.391 606.650, 474.856 625.775, 471.007 642 C 463.494 673.667, 462.707 680.367, 465.886 685.580 C 469.908 692.176, 469.435 692.125, 526.495 692.035 C 581.894 691.946, 591.856 691.308, 613.573 686.454 C 643.301 679.809, 670.909 666.698, 692.500 648.969 C 719.829 626.529, 739.271 596.449, 751.587 557.555 C 755.816 544.198, 782 437.386, 782 433.491 C 782 428.824, 780.649 426.387, 777.020 424.510 C 774.467 423.190, 760.924 423.010, 669.300 423.079 C 583.420 423.145, 563.327 423.412, 558 424.560"/>
  </g>
</svg>
